<?xml version="1.0" standalone="no"?>
<!DOCTYPE svg PUBLIC "-//W3C//DTD SVG 20010904//EN"
 "http://www.w3.org/TR/2001/REC-SVG-20010904/DTD/svg10.dtd">
<svg version="1.0" xmlns="http://www.w3.org/2000/svg"
 width="96.000000pt" height="96.000000pt" viewBox="0 0 96.000000 96.000000"
 preserveAspectRatio="xMidYMid meet">

<g transform="translate(0.000000,96.000000) scale(0.100000,-0.100000)"
fill="#000000" stroke="none">
<path d="M192 948 c-16 -16 -16 -200 0 -216 7 -7 25 -12 40 -12 21 0 28 -5 28
-20 0 -11 6 -20 14 -20 7 0 25 9 39 20 34 27 107 28 107 2 0 -34 21 -42 107
-42 65 0 90 -4 115 -20 43 -26 61 -26 53 0 -5 16 -2 20 19 20 54 0 56 4 56
120 0 89 -3 109 -16 114 -9 3 -56 6 -105 6 -87 0 -89 0 -89 24 0 13 -7 27 -16
30 -31 12 -339 7 -352 -6z m348 -108 l0 -90 -103 0 c-91 0 -106 -2 -122 -20
-10 -11 -21 -20 -25 -20 -4 0 -10 9 -13 20 -4 15 -14 20 -41 20 l-36 0 0 90 0
90 170 0 170 0 0 -90z m210 -60 l0 -90 -33 0 c-25 0 -36 -6 -43 -21 l-9 -20
-27 20 c-22 18 -40 21 -112 21 -68 0 -86 3 -86 15 0 10 15 15 58 17 l57 3 3
73 3 72 94 0 95 0 0 -90z"/>
<path d="M420 596 c-24 -9 -47 -10 -74 -4 -29 7 -53 4 -92 -8 -67 -21 -88 -44
-90 -97 0 -23 -7 -54 -14 -69 -11 -24 -10 -31 6 -55 17 -25 44 -80 44 -89 0
-2 -40 -31 -90 -64 -49 -33 -94 -69 -100 -79 -5 -11 -10 -38 -10 -60 0 -74
-21 -71 471 -71 285 0 447 4 460 10 15 9 19 22 19 63 0 29 -6 60 -12 69 -7 9
-49 39 -93 68 -44 28 -81 53 -83 55 -2 2 12 28 32 58 39 58 45 87 21 107 -17
14 -21 45 -5 35 25 -15 7 48 -22 81 -39 42 -101 60 -154 45 -26 -7 -44 -6 -69
5 -41 17 -98 17 -145 0z m150 -31 c17 -9 30 -19 30 -23 5 -82 11 -116 24 -126
13 -9 13 -15 3 -32 -6 -12 -22 -39 -34 -62 -28 -51 -68 -82 -104 -82 -34 0
-82 39 -100 82 -7 18 -18 38 -25 43 -19 17 -23 43 -8 55 8 7 14 31 15 54 0 22
4 49 8 60 15 40 137 59 191 31z m-217 -17 c-4 -13 -7 -41 -6 -62 1 -23 -5 -45
-14 -54 -18 -18 -11 -49 22 -98 14 -20 25 -42 25 -49 0 -6 -37 -29 -82 -51
-73 -34 -86 -44 -106 -84 -18 -34 -22 -54 -18 -82 l6 -38 -74 0 c-74 0 -74 0
-81 28 -10 50 9 76 97 132 45 30 89 54 98 55 8 0 16 5 16 10 2 10 -44 96 -56
105 -15 12 -18 39 -5 50 8 7 15 35 17 68 3 54 5 58 38 74 19 9 57 17 83 18 46
0 48 -1 40 -22z m387 7 c34 -18 56 -53 43 -66 -13 -13 -3 -70 13 -76 18 -7 18
-24 -1 -48 -8 -11 -30 -44 -50 -73 -26 -41 -31 -53 -17 -50 17 4 180 -93 194
-116 4 -6 8 -30 8 -53 l0 -43 -59 0 -59 0 -4 59 c-6 82 -24 105 -123 151 -47
21 -85 43 -85 48 0 5 13 29 30 53 32 48 38 86 15 95 -17 7 -21 44 -4 44 11 0
9 17 -6 68 -7 20 -4 22 34 22 23 0 55 -7 71 -15z m-310 -317 c38 -28 83 -27
121 1 l31 23 85 -38 c46 -21 91 -47 99 -58 8 -12 14 -45 14 -83 l0 -63 -285 0
-285 0 0 61 c0 33 5 69 11 81 8 14 141 88 177 97 2 1 16 -9 32 -21z"/>
<path d="M97 114 c-10 -10 -9 -42 2 -48 5 -3 11 0 14 7 6 16 -7 50 -16 41z"/>
<path d="M847 114 c-10 -10 -9 -42 2 -48 5 -3 11 0 14 7 6 16 -7 50 -16 41z"/>
<path d="M334 106 c-8 -21 3 -49 16 -41 5 3 10 15 10 25 0 25 -18 36 -26 16z"/>
<path d="M484 106 c-8 -21 3 -49 16 -41 5 3 10 15 10 25 0 25 -18 36 -26 16z"/>
<path d="M634 106 c-8 -21 3 -49 16 -41 5 3 10 15 10 25 0 25 -18 36 -26 16z"/>
<path d="M260 90 c0 -11 5 -20 10 -20 6 0 10 9 10 20 0 11 -4 20 -10 20 -5 0
-10 -9 -10 -20z"/>
<path d="M410 90 c0 -11 5 -20 10 -20 6 0 10 9 10 20 0 11 -4 20 -10 20 -5 0
-10 -9 -10 -20z"/>
<path d="M560 90 c0 -11 5 -20 10 -20 6 0 10 9 10 20 0 11 -4 20 -10 20 -5 0
-10 -9 -10 -20z"/>
<path d="M710 90 c0 -11 5 -20 10 -20 6 0 10 9 10 20 0 11 -4 20 -10 20 -5 0
-10 -9 -10 -20z"/>
</g>
</svg>
