<?xml version="1.0" standalone="no"?>
<!DOCTYPE svg PUBLIC "-//W3C//DTD SVG 20010904//EN"
 "http://www.w3.org/TR/2001/REC-SVG-20010904/DTD/svg10.dtd">
<svg version="1.0" xmlns="http://www.w3.org/2000/svg"
 width="32.000000pt" height="32.000000pt" viewBox="0 0 32.000000 32.000000"
 preserveAspectRatio="xMidYMid meet">

<g transform="translate(0.000000,32.000000) scale(0.100000,-0.100000)"
fill="#000000" stroke="none">
<path d="M67 313 c-16 -16 -6 -63 16 -73 20 -10 20 -10 5 3 -10 8 -18 26 -18
41 0 25 2 26 55 26 54 0 55 0 55 -30 0 -28 -3 -30 -37 -30 l-38 0 30 -16 c16
-8 41 -13 55 -11 20 3 18 4 -10 6 -32 2 -33 3 -12 11 12 6 22 18 22 30 0 16 7
20 30 20 26 0 30 -4 30 -26 0 -15 -8 -33 -17 -41 -16 -13 -16 -13 5 -3 18 9
23 18 20 43 -3 27 -7 32 -33 35 -16 2 -34 8 -39 13 -11 10 -109 12 -119 2z"/>
<path d="M103 192 c9 -2 17 -11 17 -20 1 -15 2 -15 11 1 14 24 59 22 66 -3 3
-11 9 -17 14 -15 4 3 6 12 3 19 -3 8 2 16 13 18 10 2 -18 4 -62 4 -44 0 -72
-2 -62 -4z"/>
<path d="M258 163 c5 -21 7 -23 10 -9 2 10 0 22 -6 28 -6 6 -7 0 -4 -19z"/>
<path d="M4 20 c1 -13 26 -15 156 -16 85 -1 145 0 133 3 -12 2 -24 12 -26 21
-4 15 -5 15 -6 0 -1 -16 -13 -18 -95 -18 -82 0 -95 2 -99 18 -4 16 -5 16 -6 0
-1 -21 -47 -25 -54 -5 -2 7 -3 6 -3 -3z"/>
</g>
</svg>
